<svg width="500" height="231" viewBox="0 0 500 231" fill="none" xmlns="http://www.w3.org/2000/svg">
<path fill-rule="evenodd" clip-rule="evenodd" d="M401.032 155.427C398.731 189.966 370.537 217.022 335.44 217.022C299.191 217.022 269.847 187.664 269.847 151.397C269.847 122.038 288.834 97.2847 315.301 88.6498C315.877 85.1958 315.877 82.3175 315.877 78.8635C315.877 77.7122 315.877 75.9852 315.877 74.8339C281.93 83.4688 256.613 114.555 256.613 151.397C256.613 195.147 291.711 230.263 335.44 230.263C376.866 230.263 410.814 198.025 414.266 157.729C409.663 157.154 405.06 156.578 401.032 155.427ZM335.44 85.7715C368.236 85.7715 395.854 109.949 400.457 141.611C405.06 142.762 409.087 143.913 414.266 144.489C410.814 104.193 376.866 72.5313 335.44 72.5313C333.138 72.5313 330.837 72.5312 328.535 73.1069C328.535 75.4096 328.535 77.1365 328.535 79.4392C328.535 81.7418 328.535 84.0445 327.96 86.3471C330.837 85.7715 333.138 85.7715 335.44 85.7715Z" fill="#00A651"/>
<path fill-rule="evenodd" clip-rule="evenodd" d="M242.808 157.727C239.931 198.023 205.984 230.26 164.557 230.26C120.828 230.26 85.7305 195.145 85.7305 151.394C85.7305 114.552 111.047 84.042 144.994 74.8314C144.994 75.9828 144.994 77.7097 144.994 78.8611C144.994 82.315 144.994 85.769 144.419 88.6473C117.951 97.2822 98.9641 122.036 98.9641 151.394C98.9641 187.661 128.308 217.02 164.557 217.02C199.655 217.02 227.848 189.964 230.149 155.424C234.177 156.575 238.78 157.151 242.808 157.727ZM157.652 85.769C157.652 83.4664 158.228 81.1637 158.228 78.8611C158.228 76.5584 158.228 74.8314 158.228 72.5288C160.529 72.5288 162.831 71.9531 165.132 71.9531C206.559 71.9531 240.506 103.615 243.958 143.911C239.355 143.335 234.752 142.184 230.149 141.033C225.546 109.371 197.928 85.1933 165.132 85.1933C162.255 85.769 159.954 85.769 157.652 85.769Z" fill="#FCB131"/>
<path fill-rule="evenodd" clip-rule="evenodd" d="M499.996 78.8656C499.996 122.616 464.898 157.731 421.17 157.731C379.743 157.731 345.796 126.07 342.344 85.7736C346.947 86.3492 351.55 87.5006 356.153 88.6519C360.756 120.313 388.374 144.491 421.17 144.491C457.419 144.491 486.763 115.132 486.763 78.8656C486.763 42.599 457.419 13.2402 421.17 13.2402C386.072 13.2402 357.879 40.2963 355.577 74.836C351.55 73.6847 346.947 73.109 342.344 72.5334C345.221 32.2371 379.168 0 420.595 0C464.323 0 499.996 35.1154 499.996 78.8656Z" fill="#EE334E"/>
<path fill-rule="evenodd" clip-rule="evenodd" d="M249.717 144.491C216.921 144.491 189.303 120.313 184.7 88.6519C180.097 87.5006 176.069 86.3492 170.891 85.7736C174.343 126.07 208.29 157.731 249.717 157.731C252.018 157.731 254.32 157.731 256.621 157.156C256.621 154.853 256.621 153.126 256.621 150.823C256.621 148.521 256.621 146.218 257.197 143.915C254.32 144.491 252.018 144.491 249.717 144.491ZM249.717 0C208.29 0 174.343 32.2371 170.891 72.5334C175.494 73.109 179.521 73.6847 184.124 74.836C186.426 40.2963 214.619 13.2402 249.717 13.2402C285.965 13.2402 315.309 42.599 315.309 78.8656C315.309 108.224 296.322 132.978 269.855 141.613C269.28 145.067 269.28 147.945 269.28 151.399C269.28 152.55 269.28 154.277 269.28 155.429C303.227 146.794 328.543 115.708 328.543 78.8656C328.543 35.1154 293.445 0 249.717 0Z" fill="black"/>
<path fill-rule="evenodd" clip-rule="evenodd" d="M157.652 78.8656C157.652 35.1154 122.555 0 78.8262 0C35.0978 0 0 35.1154 0 78.8656C0 122.616 35.0978 157.731 78.8262 157.731C81.1277 157.731 83.4292 157.731 85.7307 157.156C85.7307 154.853 85.7307 153.126 85.7307 150.823C85.7307 148.521 85.7307 146.218 86.3061 143.915C84.0046 143.915 81.7031 144.491 79.4016 144.491C42.5777 144.491 13.2336 115.132 13.2336 78.8656C13.2336 42.599 42.5777 13.2402 78.8262 13.2402C115.075 13.2402 144.419 42.599 144.419 78.8656C144.419 108.224 125.432 132.978 98.9643 141.613C98.389 145.067 98.389 147.945 98.389 151.399C98.389 152.55 98.389 154.277 98.389 155.429C132.911 146.794 157.652 115.708 157.652 78.8656Z" fill="#0081C8"/>
</svg>
