<svg width="350" height="259" viewBox="0 0 350 259" fill="none" xmlns="http://www.w3.org/2000/svg">
<path d="M157.545 2.07014C132.37 -3.73711 97.9959 2.65873 65.5192 21.447C14.71 50.8401 -12.2106 99.4311 5.38994 129.979C16.6364 149.498 43.3402 156.924 74.4108 152.075C60.2005 148.798 48.92 141.632 42.569 130.611C24.9685 100.064 51.8901 51.4732 102.699 22.079C121.042 11.4668 139.99 4.81033 157.545 2.07014Z" fill="#F0282D"/>
<path d="M157.98 122.589C165.549 147.337 188.262 173.969 220.74 192.757C271.549 222.15 327.007 221.216 344.608 190.669C355.854 171.15 348.921 144.264 329.194 119.727C333.467 133.697 332.914 147.067 326.562 158.089C308.962 188.637 253.505 189.571 202.695 160.177C184.353 149.566 169.127 136.451 157.98 122.589Z" fill="#00A651"/>
<path d="M123.532 62.6328C105.925 81.5741 94.2656 114.601 94.2656 152.177C94.2656 210.965 122.803 258.621 158.004 258.621C180.497 258.621 200.268 239.16 211.612 209.775C201.673 220.468 189.841 226.674 177.14 226.674C141.939 226.674 113.401 179.017 113.401 120.23C113.401 99.0073 117.122 79.2374 123.532 62.6328Z" fill="#0078D0"/>
</svg>
